/* XPM */
static const char *door[] = {
/* columns rows colors chars-per-pixel */
"108 108 9 1 ",
"  c gray5",
". c gray7",
"X c gray11",
"o c #20361A",
"O c #376129",
"+ c #78473B",
"@ c #945848",
"# c #B87E6F",
"$ c #FF00FF",
/* pixels */
"$$$$$$$$$$$$$$$$$$$$$$$$$$$$$$$XXXXXXXXXXXXXXXXXXXXXXXXXXXXXXXXXXXXXXXXXXXXX$$$$$$$$$$$$$$$$$$$$$$$$$$$$$$$$",
"$$$$$$$$$$$$$$$$$$oooooo$$$$$$$XXXXXXXXXXXXXXXXXXXXXXXXXXXXXXXXXXXXXXXXXXXXX$$$$$$$$$$$$$$$$$$$$$$$$$$$$$$$$",
"$$$$$$$$$$$$$$$$$$oooooo$$$$$$$XXXXXXXXXXXXXXXXXXXXXXXXXXXXXXXXXXXXXXXXXXXXX$$$$$$$$$$$$$$$$$$$$$$$$$$$$$$$$",
"$$$$$$$$$$$$$$$$oooooooooooooo$XXXXXXXXXXXXXXXXXXXXXXXXXXXXXXXXXXXXXXXXXXXXX$$$$$$$$$$$$$$$$$$$$$$$$$$$$$$$$",
"XXXXXXXXXXXXXooooooooooooooooooXXXXXOOOOooooo####oooooOOOOooooo#############XXXXXXXXXXXXXXXXXXXXXXXXXXXXXXXX",
"XXXXXXXXXXXXXooooooooooooooooooXXXXXOOOOooooo####oooooOOOOooooo#############XXXXXXXXXXXXXXXXXXXXXXXXXXXXXXXX",
"XXXXXXooooooooooooooooooooooooooooXXOOOOooooo####oooooOOOOooooo#############XXXXXXXXXXXXXXXXXXXXXXXXXXXXXXXX",
"XXXXXXooooooooooooooooooooooooooooooOOOOooooo####oooooOOOOooooo#############XXXXXXXXXXXXXXXXXXXXXXXXXXXXXXXX",
"XXXXXXooooooooooooooooooooooooooooooOOOOooooo####oooooOOOOooooo#############XXXXXXXXXXXXXXXXXXXXXXXXXXXXXXXX",
"XXXX##############ooooOOOOOoooooooooOOOOooooo@@@@oooooOOOOooooo@@@@@@@@@@@@@###########################XXXXX",
"XXXX##############ooooOOOOOoooooooooOOOOooooo@@@@oooooOOOOooooo@@@@@@@@@@@@@###########################XXXXX",
"XXXX##############ooooOOOOOoooooooooOOOOooooo@@@@oooooOOOOooooo@@@@@@@@@@@@@###########################XXXXX",
"XXXX##############ooooOOOOOoooooooXXOOOOooooo@@@@oooooOOOOooooo@@@@@@@@@@@@@###########################XXXXX",
"XXXX@@@@@@@@@@@oooOOOOooooooooooooXXOOOOooooo@@@@oooooOOOOooooo@@@@@@@@@@@@@@@@@@@@@@@@@@@@@@@@@@@@@@@@XXXXX",
"XXXX@@@@@@@@@@@oooOOOOooooooooooooXXOOOOooooo@@@@oooooOOOOooooo@@@@@@@@@@@@@@@@@@@@@@@@@@@@@@@@@@@@@@@@XXXXX",
"XXXX@@@@@@@@@@@oooOOOOoooooooooooXXXOOOOooooo@@@@oooooOOOOooooo@@@@@@@@@@@@@@@@@@@@@@@@@@@@@@@@@@@@@@@@XXXXX",
"XXXX@@@@@@@@@@@oooOOOOoooooooooooXXXOOOOooooo@@@@oooooOOOOooooo@@@@@@@@@@@@@@@@@@@@@@@@@@@@@@@@@@@@@@@@XXXXX",
"XXXX@@@@@@@@@@@oooOOOOoooooooooooXXXOOOOooooo@@@@oooooOOOOooooo@@@@@@@@@@@@@@@@@@@@@@@@@@@@@@@@@@@@@@@@XXXXX",
"XXXX+++++@@@@@@oooOOOOoooooooooXXXXXooooooooooooooooooOOOOoooooOOOOooooo++++@@@@@@@@@@@@@@@@@@@@@@@++++XXXXX",
"XXXX+++++@@@@@@oooOOOOooooooXXXXXXXXooooooooooooooooooOOOOoooooOOOOooooo++++@@@@@@@@@@@@@@@@@@@@@@@++++XXXXX",
"XXXX+++++@@@@@@oooOOOOooooooXXXXXXXXooooooooooooooooooOOOOoooooOOOOooooo++++@@@@@@@@@@@@@@@@@@@@@@@++++XXXXX",
"XXXX+++++@@@@@@oooOOOOooooooXXXXXXXXXXXXooooooooooooXXOOOOOOXXXOOOOXXXXX++++@@@@@@@@@@@@@@@@@@@@@@@++++XXXXX",
"$$$$ooooooooooooooOOOOooooooooXXXXXXXXXXXXXXXXoooooooooOOOOOXXXOOOOXXXXXXXXXOOOOO.........+++++++++XXXX$$$$$",
"$$$$ooooooooooooooOOOOooooooooXXXXXXXXXXXXXXXXoooooooooOOOOOXXXOOOOXXXXXXXXXOOOOO.........+++++++++XXXX$$$$$",
"$$$$ooooooooooooooOOOOoooooooooooXXXXXXXXXXXXX..oooooooooOOOOOOOOOOXXXXXXXXXOOOOO.........+++++++++XXXX$$$$$",
"$$$$XXooooooooooooOOOOoooooooooXXXXXXXXXXXXXXX.....ooooooOOOOOOOOOOXXXXXXXXXOOOOO.........+++++++++XXXX$$$$$",
"$$$$XXooooooooooooOOOOoooooooooXXXXXXXXXXXXXXX.....ooooooOOOOOOOOOOXXXXXXXXXOOOOO.........+++++++++XXXX$$$$$",
"$$$$XXXXXOOOOoooooOOOOXXXoooooooooXXXXXXXXXXXX.....ooooooooooOOOOOOXXXXXXXXXOOOOOXXX......++++@@@@@XXXX$$$$$",
"$$$$XXXXXOOOOoooooXXXXXXXoooooooooXXXXXXXXXXXX.....ooooooooooOOOOOOXXXXXXXXXXXXXXXXX......++++@@@@@XXXX$$$$$",
"$$$$XXXXXOOOOoooooXXXXXXXoooooooooXXXXXXXXXXXX.....ooooooooooOOOOOOXXXXXXXXXXXXXXXXX......++++@@@@@XXXX$$$$$",
"$$$$XXXXXOOOOoooooXXXXoooooooooXXXXXXXXXXX.........ooooooooooOOOOOO.....XXXXXXXXXX........++++@@@@@XXXX$$$$$",
"$$$$XXXXXooooOOOOOXXXXoooooooooXXXXXXXXXXX..........     ooooOOOOOO.........XXXXXX........++++@@@@@XXXX$$$$$",
"$$$$XXXXXooooOOOOOXXXXoooooooooXXXXXXXXXXX..........     ooooOOOOOO.........XXXXXX........++++@@@@@XXXX$$$$$",
"$$$$XXXXXooooOOOOOoooooooooooooXXXXXX...............     ooooOOOOOOOOOOO....XXXXXX.....XXX++++@@@@@XXXX$$$$$",
"$$$$XXXXXooooOOOOOoooooooooXXXXXXXXXX...............     ooooOOOOOOOOOOO....XXXXXX.....XXX@@@@@@@@@XXXX$$$$$",
"$$$$XXXXXooooOOOOOoooooooooXXXXXXXXXX...............     ooooOOOOOOOOOOO....XXXXXX.....XXX@@@@@@@@@XXXX$$$$$",
"$$$$XXXXX@@@@ooooooooooooooXXXXXXXXXX.........           ooooooooooOOOOO....XXX........XXX@@@@@@@@@XXXX$$$$$",
"$$$$XXXXX@@@@ooooooooooooooXXXXXXXXXX.....               ooooooooooOOOOO....XXX.....XXXXXX@@@@@@@@@XXXX$$$$$",
"$$$$XXXXX@@@@ooooooooooooooXXXXXXXXXX.....               ooooooooooOOOOO....XXX.....XXXXXX@@@@@@@@@XXXX$$$$$",
"$$$$XXXXX@@@@ooooooooooooooXXXXXX.........                   ooooooOOOOO............XXXXXX@@@@@@@@@XXXX$$$$$",
"$$$$XXXXX@@@@@@@@@ooooXXXXXXXXXXX.........                     ooooOOOOO............XXXXXX@@@@@@@@@XXXX$$$$$",
"$$$$XXXXX@@@@@@@@@ooooXXXXXXXXXXX.........                     ooooOOOOO............XXXXXX@@@@@@@@@XXXX$$$$$",
"$$$$XXXXX@@@@@@@@@ooooXXXXXXXXXXX.........                     ooooOOOOOOOOO........XXXXXX@@@@@@@@@XXXX$$$$$",
"$$$$XXXXX@@@@@@@@@ooooXXXXXX.........                              OOOOOOOOO........XXXXXX@@@@@@@@@XXXX$$$$$",
"$$$$XXXXX@@@@@@@@@ooooXXXXXX.........                              OOOOOOOOO........XXXXXX@@@@@@@@@XXXX$$$$$",
"$$$$XXXXX@@@@@@@@@XXXXXXXXXX.........                              OOOOOOOOO........XXXXXX@@@@@@@@@XXXX$$$$$",
"$$$$XXXXX@@@@@@@@@XXXXXXXXXX.........                                 ...........XXXXXXXXX@@@@@@@@@XXXX$$$$$",
"$$$$XXXXX@@@@@@@@@XXXXXXXXXX.........                                 ...........XXXXXXXXX@@@@@@@@@XXXX$$$$$",
"$$$$XXXXX@@@@@@@@@XXXXXXXXXX..............                            ...........XXXXXXXXX@@@@@@@@@XXXX$$$$$",
"$$$$XXXXX@@@@oooooXXXXXXXXXX..............                            ..............XXXXXX@@@@@@@@@XXXX$$$$$",
"$$$$XXXXX@@@@oooooXXXXXXXXXX..............                            ..............XXXXXX@@@@@@@@@XXXX$$$$$",
"$$$$XXXXX@@@@oooooXXXXXXXXXX..............                                 .........XXXXXX@@@@@@@@@XXXX$$$$$",
"$$$$XXXXX@@@@oooooXXXXXXXXXX..............                                 .........XXXXXX@@@@@@@@@XXXX$$$$$",
"$$$$XXXXX@@@@oooooXXXXXXXXXX..............                                 .........XXXXXX@@@@@@@@@XXXX$$$$$",
"$$$$XXXXXooooOOOOOXXXXXXXXXX..............                                 .........XXXXXX@@@@@@@@@XXXX$$$$$",
"$$$$XXXXXooooOOOOOXXXXXXXXXX..............                                 .........XXXXXX@@@@@@@@@XXXX$$$$$",
"$$$$XXXXXooooOOOOOXXXXXXXXXX..............                                 .........XXXXXX@@@@@@@@@XXXX$$$$$",
"$$$$XXXXXooooOOOOOXXXXXXXXXX.........                                      .........XXXXXX@@@@@@@@@XXXX$$$$$",
"$$$$XXXXXOOOOoooooXXXXXXXXXX.........                                      .........XXXXXXoooo@@@@@XXXX$$$$$",
"$$$$XXXXXOOOOoooooXXXXXXXXXX.........                                      .........XXXXXXoooo@@@@@XXXX$$$$$",
"$$$$XXXXXOOOOoooooXXXXXX.............                                      .........XXXXXXoooo@@@@@XXXX$$$$$",
"$$$$XXXXXOOOOoooooXXXXXX.............                                      .........XXXXXXoooo@@@@@XXXX$$$$$",
"$$$$XXXXXOOOOoooooXXXXXX.............                                      .........XXXXXXoooo@@@@@XXXX$$$$$",
"$$$$XXXXXoooooooooXXXXXX.............                                      .........XXXXXXOOOOoooooXXXX$$$$$",
"$$$$XXXXXooooOOOOOXXXXXX.............                                      .........XXXXXXOOOOoooooXXXX$$$$$",
"$$$$XXXXXooooOOOOOXXXXXX.............                                      .........XXXXXXOOOOoooooXXXX$$$$$",
"$$$$XXXXXooooOOOOOXXXXXX.............                                      .........XXXXXXOOOOoooooXXXX$$$$$",
"$$$$XXXXXooooOOOOOXXXXXX.............                                          .....XXXXXXooooOOOOOXXXX$$$$$",
"$$$$XXXXXooooOOOOOXXXXXX.............                                          .....XXXXXXooooOOOOOXXXX$$$$$",
"$$$$XXXXXooooOOOOOXXXXXX.............                                          .....XXXXXXooooOOOOOXXXX$$$$$",
"$$$$XXXXXooooOOOOOXXXXXX.............                                          .....XXXXXXooooOOOOOXXXX$$$$$",
"$$$$XXXXXooooOOOOOXXXXXX.............                                          .....XXXXXXooooOOOOOXXXX$$$$$",
"$$$$XXXXXOOOOoooooXXXXXXXXX..........                                          .....XXXXXX@@@@oooooXXXX$$$$$",
"$$$$XXXXXOOOOoooooXXXXXXXXX..........                                          .....XXXXXX@@@@oooooXXXX$$$$$",
"$$$$XXXXXOOOOoooooXXXXXXXXX..........                                          .....XXXXXX@@@@oooooXXXX$$$$$",
"$$$$XXXXXOOOOoooooXXXXXXXXX..........                                          .....XXXXXX@@@@oooooXXXX$$$$$",
"$$$$XXXXXoooooooooXXXXXXXXXXXXXXX....                                          .....XXXXXXoooo@@@@@XXXX$$$$$",
"$$$$XXXXXoooooooooXXXXXXXXXXXXXXX....                                          .....XXXXXXoooo@@@@@XXXX$$$$$",
"$$$$XXXXXoooooooooXXXXXXXXXXXXXXX....                                          .....XXXXXXoooo@@@@@XXXX$$$$$",
"$$$$XXXXXoooooooooXXXXXXXXXXXXXXX....                                      .........XXXXXXoooo@@@@@XXXX$$$$$",
"$$$$XXXXXoooooooooXXXXXXXXXXXXXXX....                                      .........XXXXXXoooo@@@@@XXXX$$$$$",
"$$$$XXXXXooooOOOOOXXXXXXXXX.........                                       .........XXXXXXOOOOoooooXXXX$$$$$",
"$$$$XXXXXooooOOOOOXXXXXXXXX.........                                       .........XXXXXXOOOOoooooXXXX$$$$$",
"$$$$XXXXXooooOOOOOXXXXXXXXX.........                                       .........XXXXXXOOOOoooooXXXX$$$$$",
"$$$$XXXXXooooOOOOOXXXXXXXXX.........                                       .........XXXXXXOOOOoooooXXXX$$$$$",
"$$$$XXXXXOOOOoooooXXXXXXXXX.........                                       .........XXXXXXooooOOOOOXXXX$$$$$",
"$$$$XXXXXOOOOoooooXXXXXXXXX.........                                       .........XXXXXXooooOOOOOXXXX$$$$$",
"$$$$XXXXXOOOOXXXXXXXXX.........                                            .........XXXXXXooooOOOOOXXXX$$$$$",
"$$$$XXXXXOOOOXXXXXXXXX.........                                            .........XXXXXXooooOOOOOXXXX$$$$$",
"$$$$XXXXXOOOOXXXXXXXXX.........                                            .........XXXXXXooooOOOOOXXXX$$$$$",
"$$$$XXXXXXXXXXXoooXXXX.........                                            ....XXXXXXXXXXXoooooooooXXXX$$$$$",
"$$$$XXXXXXXXXoooooXXXX.........                                            ....XXXXXXXXXXXoooooooooXXXX$$$$$",
"$$$$XXXXXXXXXoooooXXXX.........                                            ....XXXXXXXXXXXoooooooooXXXX$$$$$",
"$$$$XXXXXXXXXoooooXXXX.........                                            ....XXXXXXXXXXXoooooooooXXXX$$$$$",
"$$$$XXXXXoooooooooXXXX.........                                            ....XXXXXXXXXXXOOOOoooooXXXX$$$$$",
"$$$$XXXXXoooooooooXXXX.........                                            ....XXXXXXXXXXXOOOOoooooXXXX$$$$$",
"$$$$XXXXXoooooooooXXXX.........                                            ....XXXXXXXXXXXOOOOoooooXXXX$$$$$",
"$$$$XXXXXooooOOOOOXXXX.........                                       .........XXXXXXXXXooOOOOoooooXXXX$$$$$",
"$$$$XXXXXooooOOOOOXXXX.........                                       .........XXXXXXXXXooOOOOoooooXXXX$$$$$",
"$$$$XXXXXOOOOoooooXXXX.................                               ..............XXXXooooooOOOOOXXXX$$$$$",
"$$$$XXXXXOOOOoooooXXXX.................                           ..................XXXoooooooOOOOOXXXX$$$$$",
"$$$$XXXXXOOOOoooooXXXX.................                           ..................XXXoooooooOOOOOXXXX$$$$$",
"$$$$XXXXXOOOOoooooXXXX..................                          ...................XXoooooooOOOOOXXXX$$$$$",
"$$$$XXXXXoooo@@@@@ooooooooo..................             ............ooooo..........ooooo@@@@oooooXXXX$$$$$",
"$$$$XXXXXoooo@@@@@ooooooooo..................             ............ooooo..........ooooo@@@@oooooXXXX$$$$$",
"$$$$XXXXXoooo@@@@@ooooooooooooooooooo........            .........ooooooo.........oooooooo@@@@oooooXXXX$$$$$",
"$$$$XXXXXoooo@@@@@oooooooooooooooooooooo.....       .........ooooooooooooooooooooooooooo@@@@@ooooooXXXX$$$$$",
"$$$$XXXXXoooo@@@@@oooooooooooooooooooooo.....       .........ooooooooooooooooooooooooooo@@@@@ooooooXXXX$$$$$"
};
