/* XPM */
static char *_1ed31ffae4e43e4d344abf1af75c85fIgDXZN9yfNxFuNs1[] = {
/* columns rows colors chars-per-pixel */
"96 16 5 1 ",
"  c None",
". c gray20",
"X c #345C98",
"o c #678FCB",
"O c #B9B5C3",
/* pixels */
"                                                                                                ",
"                        ....            ....            ...            ...                      ",
"       .....         ...oooo.          .oooo.          .ooo.         ..Xoo..           .....    ",
"     ..Xoooo.      ..Xoo.....     .....ooooo.       ...Xoooo.      ..Xoo.....      ....Xoooo.   ",
"  ...Xoo.....     .Xooo......     .Xoooo.....     ..Xooo.....     .Xooo......     .ooooo.....   ",
"  .Xooo......     .oooo..OO..     .oooo..OO..     .oooo......     ..ooo..OO..      .ooo..OO..   ",
"  .oooo..OO..      .Xoo......      .Xoo......      .Xoo..OO..       ..o......      .Xoo......   ",
"   .Xoo......     ....oX....        ..o......       ..o......      ..ooX....        ..o......   ",
"  ....oX....     .Xooooooo.      .....oX....       ..ooX....      .Xoooooo.        ...oX....    ",
" .Xooooooo.     .XooX.oooX.     .XoooX.ooo.      ..ooooooX.      .XooooX.o.       .Xoooooo.     ",
" .oooX.ooX.     .oX..oooX..     .ooX..oooX.      .X..oooX..      .ooooX.oo.      .XoooX.oX.     ",
"  .oX.ooX.       ..........      ...ooooX..       .ooooX.o.       ..oo....        .ooX.oX.      ",
"   .......        ...    ..        ........        ........        .....           .......      ",
"   ..            ...     .         ..   ..           ....             ..            ..          ",
"   ..                                   ..             ..                           ..          ",
"   .                                    .              .                            .           "
};
