/* XPM */
static char *e44fdd115cec4490dcbf3033b816c273KLL2iYTALusWtZ44[] = {
/* columns rows colors chars-per-pixel */
"64 16 5 1 ",
"  c None",
". c gray20",
"X c #345C98",
"o c #678FCB",
"O c #B9B5C3",
/* pixels */
"                       ...             ....                     ",
"       ....          ..Xoo..         ..oooX.           ....     ",
"      .XooX.        .XoooooX.       .XoooooX.        ..XooX.    ",
"    ..oooooo.       .oo....o.      .Xoo....o.       .XoooooX.   ",
"   .Xoo....o.      .oo.......      .oo.......      .Xoo....o.   ",
"   .oo......      .Xoo......      .ooo......      .Xoo......    ",
"  .Xoo......      .X.o.OO..O      ...o.OO..O      .ooo.OO..O    ",
"  .X.o.OO..O      ...oX.....        .oX.....      .X.o......    ",
"  ...oX.....        .oooooo.        .oooooo.       ..oX.....    ",
"   .Xoooooo.       .Xoooooo.       .Xoooooo.        .oooooo.    ",
"  .XooXoooX.      .XoXoooXo.      .oXoooXo.        .XooXooo.    ",
"  .ooX.ooX..      .oX.ooX..        ..XoX.o.        .ooX.ooX.    ",
"  .oX.o....        ..X.....        ...o....        ..Xo....     ",
"   ....  ..         ...  ..         ...  ..         ...  ..     ",
"    ..   ..         ..   ..         ..   ..         ..   ..     ",
"    .    .          .    .          .    .          .    .      "
};
