/* XPM */
static const char *herochar_idle_anim_strip_4[] = {
/* columns rows colors chars-per-pixel */
"256 64 5 1 ",
"  c #000000",
". c #eb6f17",
"X c #f78534",
"o c #FFFFFF",
"O c None",
/* pixels */
"OOOOOOOOOOOOOOOOOOOOOOOOOOOOOOOOOOOOOOOOOOOOOOOOOOOOOOOOOOOOOOOOOOOOOOOOOOOOOOOOOOOOOOOOOOOO            OOOOOOOOOOOOOOOOOOOOOOOOOOOOOOOOOOOOOOOOOOOOOOOOOOOO                OOOOOOOOOOOOOOOOOOOOOOOOOOOOOOOOOOOOOOOOOOOOOOOOOOOOOOOOOOOOOOOOOOOOOOOOOOOOOOOOOOOO",
"OOOOOOOOOOOOOOOOOOOOOOOOOOOOOOOOOOOOOOOOOOOOOOOOOOOOOOOOOOOOOOOOOOOOOOOOOOOOOOOOOOOOOOOOOOOO            OOOOOOOOOOOOOOOOOOOOOOOOOOOOOOOOOOOOOOOOOOOOOOOOOOOO                OOOOOOOOOOOOOOOOOOOOOOOOOOOOOOOOOOOOOOOOOOOOOOOOOOOOOOOOOOOOOOOOOOOOOOOOOOOOOOOOOOOO",
"OOOOOOOOOOOOOOOOOOOOOOOOOOOOOOOOOOOOOOOOOOOOOOOOOOOOOOOOOOOOOOOOOOOOOOOOOOOOOOOOOOOOOOOOOOOO            OOOOOOOOOOOOOOOOOOOOOOOOOOOOOOOOOOOOOOOOOOOOOOOOOOOO                OOOOOOOOOOOOOOOOOOOOOOOOOOOOOOOOOOOOOOOOOOOOOOOOOOOOOOOOOOOOOOOOOOOOOOOOOOOOOOOOOOOO",
"OOOOOOOOOOOOOOOOOOOOOOOOOOOOOOOOOOOOOOOOOOOOOOOOOOOOOOOOOOOOOOOOOOOOOOOOOOOOOOOOOOOOOOOOOOOO            OOOOOOOOOOOOOOOOOOOOOOOOOOOOOOOOOOOOOOOOOOOOOOOOOOOO                OOOOOOOOOOOOOOOOOOOOOOOOOOOOOOOOOOOOOOOOOOOOOOOOOOOOOOOOOOOOOOOOOOOOOOOOOOOOOOOOOOOO",
"OOOOOOOOOOOOOOOOOOOOOOOOOOOO                OOOOOOOOOOOOOOOOOOOOOOOOOOOOOOOOOOOOOOOO        ....XXXXXXXX        OOOOOOOOOOOOOOOOOOOOOOOOOOOOOOOOOOOO        XXXXXXXXXXXX....    OOOOOOOOOOOOOOOOOOOOOOOOOOOOOOOOOOOOOOOOOOOO                OOOOOOOOOOOOOOOOOOOO",
"OOOOOOOOOOOOOOOOOOOOOOOOOOOO                OOOOOOOOOOOOOOOOOOOOOOOOOOOOOOOOOOOOOOOO        ....XXXXXXXX        OOOOOOOOOOOOOOOOOOOOOOOOOOOOOOOOOOOO        XXXXXXXXXXXX....    OOOOOOOOOOOOOOOOOOOOOOOOOOOOOOOOOOOOOOOOOOOO                OOOOOOOOOOOOOOOOOOOO",
"OOOOOOOOOOOOOOOOOOOOOOOOOOOO                OOOOOOOOOOOOOOOOOOOOOOOOOOOOOOOOOOOOOOOO        ....XXXXXXXX        OOOOOOOOOOOOOOOOOOOOOOOOOOOOOOOOOOOO        XXXXXXXXXXXX....    OOOOOOOOOOOOOOOOOOOOOOOOOOOOOOOOOOOOOOOOOOOO                OOOOOOOOOOOOOOOOOOOO",
"OOOOOOOOOOOOOOOOOOOOOOOOOOOO                OOOOOOOOOOOOOOOOOOOOOOOOOOOOOOOOOOOOOOOO        ....XXXXXXXX        OOOOOOOOOOOOOOOOOOOOOOOOOOOOOOOOOOOO        XXXXXXXXXXXX....    OOOOOOOOOOOOOOOOOOOOOOOOOOOOOOOOOOOOOOOOOOOO                OOOOOOOOOOOOOOOOOOOO",
"OOOOOOOOOOOOOOOOOOOOOOOO    ....XXXXXXXX....    OOOOOOOOOOOOOOOOOOOOOOOOOOOOOOOO    ....XXXXXXXXXXXXXXXXXXXX....    OOOOOOOOOOOOOOOOOOOOOOOOOOOO    ....XXXXXXXXXXXXXXXXXXXX....    OOOOOOOOOOOOOOOOOOOOOOOOOOOOOOOO        ....XXXXXXXX....    OOOOOOOOOOOOOOOO",
"OOOOOOOOOOOOOOOOOOOOOOOO    ....XXXXXXXX....    OOOOOOOOOOOOOOOOOOOOOOOOOOOOOOOO    ....XXXXXXXXXXXXXXXXXXXX....    OOOOOOOOOOOOOOOOOOOOOOOOOOOO    ....XXXXXXXXXXXXXXXXXXXX....    OOOOOOOOOOOOOOOOOOOOOOOOOOOOOOOO        ....XXXXXXXX....    OOOOOOOOOOOOOOOO",
"OOOOOOOOOOOOOOOOOOOOOOOO    ....XXXXXXXX....    OOOOOOOOOOOOOOOOOOOOOOOOOOOOOOOO    ....XXXXXXXXXXXXXXXXXXXX....    OOOOOOOOOOOOOOOOOOOOOOOOOOOO    ....XXXXXXXXXXXXXXXXXXXX....    OOOOOOOOOOOOOOOOOOOOOOOOOOOOOOOO        ....XXXXXXXX....    OOOOOOOOOOOOOOOO",
"OOOOOOOOOOOOOOOOOOOOOOOO    ....XXXXXXXX....    OOOOOOOOOOOOOOOOOOOOOOOOOOOOOOOO    ....XXXXXXXXXXXXXXXXXXXX....    OOOOOOOOOOOOOOOOOOOOOOOOOOOO    ....XXXXXXXXXXXXXXXXXXXX....    OOOOOOOOOOOOOOOOOOOOOOOOOOOOOOOO        ....XXXXXXXX....    OOOOOOOOOOOOOOOO",
"OOOOOOOOOOOOOOOO        XXXXXXXXXXXXXXXXXXXXXXXX    OOOOOOOOOOOOOOOOOOOOOOOOOOOO    XXXXXXXX                XXXX    OOOOOOOOOOOOOOOOOOOOOOOO    ....XXXXXXXX                XXXX    OOOOOOOOOOOOOOOOOOOOOOOOOOOO    ....XXXXXXXXXXXXXXXXXXXX....    OOOOOOOOOOOO",
"OOOOOOOOOOOOOOOO        XXXXXXXXXXXXXXXXXXXXXXXX    OOOOOOOOOOOOOOOOOOOOOOOOOOOO    XXXXXXXX                XXXX    OOOOOOOOOOOOOOOOOOOOOOOO    ....XXXXXXXX                XXXX    OOOOOOOOOOOOOOOOOOOOOOOOOOOO    ....XXXXXXXXXXXXXXXXXXXX....    OOOOOOOOOOOO",
"OOOOOOOOOOOOOOOO        XXXXXXXXXXXXXXXXXXXXXXXX    OOOOOOOOOOOOOOOOOOOOOOOOOOOO    XXXXXXXX                XXXX    OOOOOOOOOOOOOOOOOOOOOOOO    ....XXXXXXXX                XXXX    OOOOOOOOOOOOOOOOOOOOOOOOOOOO    ....XXXXXXXXXXXXXXXXXXXX....    OOOOOOOOOOOO",
"OOOOOOOOOOOOOOOO        XXXXXXXXXXXXXXXXXXXXXXXX    OOOOOOOOOOOOOOOOOOOOOOOOOOOO    XXXXXXXX                XXXX    OOOOOOOOOOOOOOOOOOOOOOOO    ....XXXXXXXX                XXXX    OOOOOOOOOOOOOOOOOOOOOOOOOOOO    ....XXXXXXXXXXXXXXXXXXXX....    OOOOOOOOOOOO",
"OOOOOOOOOOOO    ....XXXXXXXX                XXXX    OOOOOOOOOOOOOOOOOOOOOOOO    XXXXXXXX                            OOOOOOOOOOOOOOOOOOOOOOOO    XXXXXXXX                            OOOOOOOOOOOOOOOOOOOOOOOO    ....XXXXXXXX                XXXX    OOOOOOOOOOOO",
"OOOOOOOOOOOO    ....XXXXXXXX                XXXX    OOOOOOOOOOOOOOOOOOOOOOOO    XXXXXXXX                            OOOOOOOOOOOOOOOOOOOOOOOO    XXXXXXXX                            OOOOOOOOOOOOOOOOOOOOOOOO    ....XXXXXXXX                XXXX    OOOOOOOOOOOO",
"OOOOOOOOOOOO    ....XXXXXXXX                XXXX    OOOOOOOOOOOOOOOOOOOOOOOO    XXXXXXXX                            OOOOOOOOOOOOOOOOOOOOOOOO    XXXXXXXX                            OOOOOOOOOOOOOOOOOOOOOOOO    ....XXXXXXXX                XXXX    OOOOOOOOOOOO",
"OOOOOOOOOOOO    ....XXXXXXXX                XXXX    OOOOOOOOOOOOOOOOOOOOOOOO    XXXXXXXX                            OOOOOOOOOOOOOOOOOOOOOOOO    XXXXXXXX                            OOOOOOOOOOOOOOOOOOOOOOOO    ....XXXXXXXX                XXXX    OOOOOOOOOOOO",
"OOOOOOOOOOOO    XXXXXXXX                        OOOOOOOOOOOOOOOOOOOOOOOO    ....XXXXXXXX                        OOOOOOOOOOOOOOOOOOOOOOOO    XXXXXXXXXXXX                        OOOOOOOOOOOOOOOOOOOOOOOO    ....XXXXXXXX                        OOOOOOOOOOOOOOOO",
"OOOOOOOOOOOO    XXXXXXXX                        OOOOOOOOOOOOOOOOOOOOOOOO    ....XXXXXXXX                        OOOOOOOOOOOOOOOOOOOOOOOO    XXXXXXXXXXXX                        OOOOOOOOOOOOOOOOOOOOOOOO    ....XXXXXXXX                        OOOOOOOOOOOOOOOO",
"OOOOOOOOOOOO    XXXXXXXX                        OOOOOOOOOOOOOOOOOOOOOOOO    ....XXXXXXXX                        OOOOOOOOOOOOOOOOOOOOOOOO    XXXXXXXXXXXX                        OOOOOOOOOOOOOOOOOOOOOOOO    ....XXXXXXXX                        OOOOOOOOOOOOOOOO",
"OOOOOOOOOOOO    XXXXXXXX                        OOOOOOOOOOOOOOOOOOOOOOOO    ....XXXXXXXX                        OOOOOOOOOOOOOOOOOOOOOOOO    XXXXXXXXXXXX                        OOOOOOOOOOOOOOOOOOOOOOOO    ....XXXXXXXX                        OOOOOOOOOOOOOOOO",
"OOOOOOOO    ....XXXXXXXX                        OOOOOOOOOOOOOOOOOOOOOOOO    ....    XXXX    oooooooo        ooooOOOOOOOOOOOOOOOOOOOOOOOO            XXXX    oooooooo        ooooOOOOOOOOOOOOOOOOOOOOOOOO    XXXXXXXXXXXX    oooooooo        ooooOOOOOOOOOOOOOOOO",
"OOOOOOOO    ....XXXXXXXX                        OOOOOOOOOOOOOOOOOOOOOOOO    ....    XXXX    oooooooo        ooooOOOOOOOOOOOOOOOOOOOOOOOO            XXXX    oooooooo        ooooOOOOOOOOOOOOOOOOOOOOOOOO    XXXXXXXXXXXX    oooooooo        ooooOOOOOOOOOOOOOOOO",
"OOOOOOOO    ....XXXXXXXX                        OOOOOOOOOOOOOOOOOOOOOOOO    ....    XXXX    oooooooo        ooooOOOOOOOOOOOOOOOOOOOOOOOO            XXXX    oooooooo        ooooOOOOOOOOOOOOOOOOOOOOOOOO    XXXXXXXXXXXX    oooooooo        ooooOOOOOOOOOOOOOOOO",
"OOOOOOOO    ....XXXXXXXX                        OOOOOOOOOOOOOOOOOOOOOOOO    ....    XXXX    oooooooo        ooooOOOOOOOOOOOOOOOOOOOOOOOO            XXXX    oooooooo        ooooOOOOOOOOOOOOOOOOOOOOOOOO    XXXXXXXXXXXX    oooooooo        ooooOOOOOOOOOOOOOOOO",
"OOOOOOOO    ....    XXXX    oooooooo        ooooOOOOOOOOOOOOOOOOOOOOOOOO            XXXX....                    OOOOOOOOOOOOOOOOOOOOOOOOOOOOOOOO    XXXX....                    OOOOOOOOOOOOOOOOOOOOOOOO    ....    XXXX                        OOOOOOOOOOOOOOOO",
"OOOOOOOO    ....    XXXX    oooooooo        ooooOOOOOOOOOOOOOOOOOOOOOOOO            XXXX....                    OOOOOOOOOOOOOOOOOOOOOOOOOOOOOOOO    XXXX....                    OOOOOOOOOOOOOOOOOOOOOOOO    ....    XXXX                        OOOOOOOOOOOOOOOO",
"OOOOOOOO    ....    XXXX    oooooooo        ooooOOOOOOOOOOOOOOOOOOOOOOOO            XXXX....                    OOOOOOOOOOOOOOOOOOOOOOOOOOOOOOOO    XXXX....                    OOOOOOOOOOOOOOOOOOOOOOOO    ....    XXXX                        OOOOOOOOOOOOOOOO",
"OOOOOOOO    ....    XXXX    oooooooo        ooooOOOOOOOOOOOOOOOOOOOOOOOO            XXXX....                    OOOOOOOOOOOOOOOOOOOOOOOOOOOOOOOO    XXXX....                    OOOOOOOOOOOOOOOOOOOOOOOO    ....    XXXX                        OOOOOOOOOOOOOOOO",
"OOOOOOOO            XXXX....                    OOOOOOOOOOOOOOOOOOOOOOOOOOOOOOOO    XXXXXXXXXXXXXXXXXXXXXXXX    OOOOOOOOOOOOOOOOOOOOOOOOOOOOOOOO    XXXXXXXXXXXXXXXXXXXXXXXX    OOOOOOOOOOOOOOOOOOOOOOOOOOOO        XXXX....                    OOOOOOOOOOOOOOOO",
"OOOOOOOO            XXXX....                    OOOOOOOOOOOOOOOOOOOOOOOOOOOOOOOO    XXXXXXXXXXXXXXXXXXXXXXXX    OOOOOOOOOOOOOOOOOOOOOOOOOOOOOOOO    XXXXXXXXXXXXXXXXXXXXXXXX    OOOOOOOOOOOOOOOOOOOOOOOOOOOO        XXXX....                    OOOOOOOOOOOOOOOO",
"OOOOOOOO            XXXX....                    OOOOOOOOOOOOOOOOOOOOOOOOOOOOOOOO    XXXXXXXXXXXXXXXXXXXXXXXX    OOOOOOOOOOOOOOOOOOOOOOOOOOOOOOOO    XXXXXXXXXXXXXXXXXXXXXXXX    OOOOOOOOOOOOOOOOOOOOOOOOOOOO        XXXX....                    OOOOOOOOOOOOOOOO",
"OOOOOOOO            XXXX....                    OOOOOOOOOOOOOOOOOOOOOOOOOOOOOOOO    XXXXXXXXXXXXXXXXXXXXXXXX    OOOOOOOOOOOOOOOOOOOOOOOOOOOOOOOO    XXXXXXXXXXXXXXXXXXXXXXXX    OOOOOOOOOOOOOOOOOOOOOOOOOOOO        XXXX....                    OOOOOOOOOOOOOOOO",
"OOOOOOOOOOOO    ....XXXXXXXXXXXXXXXXXXXXXXXX    OOOOOOOOOOOOOOOOOOOOOOOOOOOO    ....XXXXXXXXXXXXXXXXXXXXXXXX    OOOOOOOOOOOOOOOOOOOOOOOOOOOO    ....XXXXXXXXXXXXXXXXXXXXXXXX    OOOOOOOOOOOOOOOOOOOOOOOOOOOOOOOO    XXXXXXXXXXXXXXXXXXXXXXXX    OOOOOOOOOOOOOOOO",
"OOOOOOOOOOOO    ....XXXXXXXXXXXXXXXXXXXXXXXX    OOOOOOOOOOOOOOOOOOOOOOOOOOOO    ....XXXXXXXXXXXXXXXXXXXXXXXX    OOOOOOOOOOOOOOOOOOOOOOOOOOOO    ....XXXXXXXXXXXXXXXXXXXXXXXX    OOOOOOOOOOOOOOOOOOOOOOOOOOOOOOOO    XXXXXXXXXXXXXXXXXXXXXXXX    OOOOOOOOOOOOOOOO",
"OOOOOOOOOOOO    ....XXXXXXXXXXXXXXXXXXXXXXXX    OOOOOOOOOOOOOOOOOOOOOOOOOOOO    ....XXXXXXXXXXXXXXXXXXXXXXXX    OOOOOOOOOOOOOOOOOOOOOOOOOOOO    ....XXXXXXXXXXXXXXXXXXXXXXXX    OOOOOOOOOOOOOOOOOOOOOOOOOOOOOOOO    XXXXXXXXXXXXXXXXXXXXXXXX    OOOOOOOOOOOOOOOO",
"OOOOOOOOOOOO    ....XXXXXXXXXXXXXXXXXXXXXXXX    OOOOOOOOOOOOOOOOOOOOOOOOOOOO    ....XXXXXXXXXXXXXXXXXXXXXXXX    OOOOOOOOOOOOOOOOOOOOOOOOOOOO    ....XXXXXXXXXXXXXXXXXXXXXXXX    OOOOOOOOOOOOOOOOOOOOOOOOOOOOOOOO    XXXXXXXXXXXXXXXXXXXXXXXX    OOOOOOOOOOOOOOOO",
"OOOOOOOO    ....XXXXXXXX....XXXXXXXXXXXX....    OOOOOOOOOOOOOOOOOOOOOOOO    ....XXXX....XXXXXXXXXXXX....XXXX    OOOOOOOOOOOOOOOOOOOOOOOO    XXXX....XXXXXXXXXXXX....XXXX    OOOOOOOOOOOOOOOOOOOOOOOOOOOOOOOO    ....XXXXXXXX....XXXXXXXXXXXX    OOOOOOOOOOOOOOOO",
"OOOOOOOO    ....XXXXXXXX....XXXXXXXXXXXX....    OOOOOOOOOOOOOOOOOOOOOOOO    ....XXXX....XXXXXXXXXXXX....XXXX    OOOOOOOOOOOOOOOOOOOOOOOO    XXXX....XXXXXXXXXXXX....XXXX    OOOOOOOOOOOOOOOOOOOOOOOOOOOOOOOO    ....XXXXXXXX....XXXXXXXXXXXX    OOOOOOOOOOOOOOOO",
"OOOOOOOO    ....XXXXXXXX....XXXXXXXXXXXX....    OOOOOOOOOOOOOOOOOOOOOOOO    ....XXXX....XXXXXXXXXXXX....XXXX    OOOOOOOOOOOOOOOOOOOOOOOO    XXXX....XXXXXXXXXXXX....XXXX    OOOOOOOOOOOOOOOOOOOOOOOOOOOOOOOO    ....XXXXXXXX....XXXXXXXXXXXX    OOOOOOOOOOOOOOOO",
"OOOOOOOO    ....XXXXXXXX....XXXXXXXXXXXX....    OOOOOOOOOOOOOOOOOOOOOOOO    ....XXXX....XXXXXXXXXXXX....XXXX    OOOOOOOOOOOOOOOOOOOOOOOO    XXXX....XXXXXXXXXXXX....XXXX    OOOOOOOOOOOOOOOOOOOOOOOOOOOOOOOO    ....XXXXXXXX....XXXXXXXXXXXX    OOOOOOOOOOOOOOOO",
"OOOOOOOO    XXXXXXXX....    XXXXXXXX....        OOOOOOOOOOOOOOOOOOOOOOOO    XXXX....    XXXXXXXX....        OOOOOOOOOOOOOOOOOOOOOOOOOOOOOOOO        ....XXXX....    XXXX    OOOOOOOOOOOOOOOOOOOOOOOOOOOOOOOO    XXXXXXXX....    XXXXXXXX....    OOOOOOOOOOOOOOOO",
"OOOOOOOO    XXXXXXXX....    XXXXXXXX....        OOOOOOOOOOOOOOOOOOOOOOOO    XXXX....    XXXXXXXX....        OOOOOOOOOOOOOOOOOOOOOOOOOOOOOOOO        ....XXXX....    XXXX    OOOOOOOOOOOOOOOOOOOOOOOOOOOOOOOO    XXXXXXXX....    XXXXXXXX....    OOOOOOOOOOOOOOOO",
"OOOOOOOO    XXXXXXXX....    XXXXXXXX....        OOOOOOOOOOOOOOOOOOOOOOOO    XXXX....    XXXXXXXX....        OOOOOOOOOOOOOOOOOOOOOOOOOOOOOOOO        ....XXXX....    XXXX    OOOOOOOOOOOOOOOOOOOOOOOOOOOOOOOO    XXXXXXXX....    XXXXXXXX....    OOOOOOOOOOOOOOOO",
"OOOOOOOO    XXXXXXXX....    XXXXXXXX....        OOOOOOOOOOOOOOOOOOOOOOOO    XXXX....    XXXXXXXX....        OOOOOOOOOOOOOOOOOOOOOOOOOOOOOOOO        ....XXXX....    XXXX    OOOOOOOOOOOOOOOOOOOOOOOOOOOOOOOO    XXXXXXXX....    XXXXXXXX....    OOOOOOOOOOOOOOOO",
"OOOOOOOO    XXXX....    XXXX                OOOOOOOOOOOOOOOOOOOOOOOOOOOOOOOO        ....                    OOOOOOOOOOOOOOOOOOOOOOOOOOOOOOOO            XXXX                OOOOOOOOOOOOOOOOOOOOOOOOOOOOOOOO        ....XXXX                OOOOOOOOOOOOOOOOOOOO",
"OOOOOOOO    XXXX....    XXXX                OOOOOOOOOOOOOOOOOOOOOOOOOOOOOOOO        ....                    OOOOOOOOOOOOOOOOOOOOOOOOOOOOOOOO            XXXX                OOOOOOOOOOOOOOOOOOOOOOOOOOOOOOOO        ....XXXX                OOOOOOOOOOOOOOOOOOOO",
"OOOOOOOO    XXXX....    XXXX                OOOOOOOOOOOOOOOOOOOOOOOOOOOOOOOO        ....                    OOOOOOOOOOOOOOOOOOOOOOOOOOOOOOOO            XXXX                OOOOOOOOOOOOOOOOOOOOOOOOOOOOOOOO        ....XXXX                OOOOOOOOOOOOOOOOOOOO",
"OOOOOOOO    XXXX....    XXXX                OOOOOOOOOOOOOOOOOOOOOOOOOOOOOOOO        ....                    OOOOOOOOOOOOOOOOOOOOOOOOOOOOOOOO            XXXX                OOOOOOOOOOOOOOOOOOOOOOOOOOOOOOOO        ....XXXX                OOOOOOOOOOOOOOOOOOOO",
"OOOOOOOOOOOO                OOOOOOOO        OOOOOOOOOOOOOOOOOOOOOOOOOOOOOOOOOOOO            OOOOOOOO        OOOOOOOOOOOOOOOOOOOOOOOOOOOOOOOOOOOO            OOOOOOOO        OOOOOOOOOOOOOOOOOOOOOOOOOOOOOOOOOOOO            OOOOOOOO        OOOOOOOOOOOOOOOOOOOO",
"OOOOOOOOOOOO                OOOOOOOO        OOOOOOOOOOOOOOOOOOOOOOOOOOOOOOOOOOOO            OOOOOOOO        OOOOOOOOOOOOOOOOOOOOOOOOOOOOOOOOOOOO            OOOOOOOO        OOOOOOOOOOOOOOOOOOOOOOOOOOOOOOOOOOOO            OOOOOOOO        OOOOOOOOOOOOOOOOOOOO",
"OOOOOOOOOOOO                OOOOOOOO        OOOOOOOOOOOOOOOOOOOOOOOOOOOOOOOOOOOO            OOOOOOOO        OOOOOOOOOOOOOOOOOOOOOOOOOOOOOOOOOOOO            OOOOOOOO        OOOOOOOOOOOOOOOOOOOOOOOOOOOOOOOOOOOO            OOOOOOOO        OOOOOOOOOOOOOOOOOOOO",
"OOOOOOOOOOOO                OOOOOOOO        OOOOOOOOOOOOOOOOOOOOOOOOOOOOOOOOOOOO            OOOOOOOO        OOOOOOOOOOOOOOOOOOOOOOOOOOOOOOOOOOOO            OOOOOOOO        OOOOOOOOOOOOOOOOOOOOOOOOOOOOOOOOOOOO            OOOOOOOO        OOOOOOOOOOOOOOOOOOOO",
"OOOOOOOOOOOOOOOO        OOOOOOOOOOOO        OOOOOOOOOOOOOOOOOOOOOOOOOOOOOOOOOOOO        OOOOOOOOOOOO        OOOOOOOOOOOOOOOOOOOOOOOOOOOOOOOOOOOO        OOOOOOOOOOOO        OOOOOOOOOOOOOOOOOOOOOOOOOOOOOOOOOOOO        OOOOOOOOOOOO        OOOOOOOOOOOOOOOOOOOO",
"OOOOOOOOOOOOOOOO        OOOOOOOOOOOO        OOOOOOOOOOOOOOOOOOOOOOOOOOOOOOOOOOOO        OOOOOOOOOOOO        OOOOOOOOOOOOOOOOOOOOOOOOOOOOOOOOOOOO        OOOOOOOOOOOO        OOOOOOOOOOOOOOOOOOOOOOOOOOOOOOOOOOOO        OOOOOOOOOOOO        OOOOOOOOOOOOOOOOOOOO",
"OOOOOOOOOOOOOOOO        OOOOOOOOOOOO        OOOOOOOOOOOOOOOOOOOOOOOOOOOOOOOOOOOO        OOOOOOOOOOOO        OOOOOOOOOOOOOOOOOOOOOOOOOOOOOOOOOOOO        OOOOOOOOOOOO        OOOOOOOOOOOOOOOOOOOOOOOOOOOOOOOOOOOO        OOOOOOOOOOOO        OOOOOOOOOOOOOOOOOOOO",
"OOOOOOOOOOOOOOOO        OOOOOOOOOOOO        OOOOOOOOOOOOOOOOOOOOOOOOOOOOOOOOOOOO        OOOOOOOOOOOO        OOOOOOOOOOOOOOOOOOOOOOOOOOOOOOOOOOOO        OOOOOOOOOOOO        OOOOOOOOOOOOOOOOOOOOOOOOOOOOOOOOOOOO        OOOOOOOOOOOO        OOOOOOOOOOOOOOOOOOOO",
"OOOOOOOOOOOOOOOO    OOOOOOOOOOOOOOOO    OOOOOOOOOOOOOOOOOOOOOOOOOOOOOOOOOOOOOOOO    OOOOOOOOOOOOOOOO    OOOOOOOOOOOOOOOOOOOOOOOOOOOOOOOOOOOOOOOO    OOOOOOOOOOOOOOOO    OOOOOOOOOOOOOOOOOOOOOOOOOOOOOOOOOOOOOOOO    OOOOOOOOOOOOOOOO    OOOOOOOOOOOOOOOOOOOOOOOO",
"OOOOOOOOOOOOOOOO    OOOOOOOOOOOOOOOO    OOOOOOOOOOOOOOOOOOOOOOOOOOOOOOOOOOOOOOOO    OOOOOOOOOOOOOOOO    OOOOOOOOOOOOOOOOOOOOOOOOOOOOOOOOOOOOOOOO    OOOOOOOOOOOOOOOO    OOOOOOOOOOOOOOOOOOOOOOOOOOOOOOOOOOOOOOOO    OOOOOOOOOOOOOOOO    OOOOOOOOOOOOOOOOOOOOOOOO",
"OOOOOOOOOOOOOOOO    OOOOOOOOOOOOOOOO    OOOOOOOOOOOOOOOOOOOOOOOOOOOOOOOOOOOOOOOO    OOOOOOOOOOOOOOOO    OOOOOOOOOOOOOOOOOOOOOOOOOOOOOOOOOOOOOOOO    OOOOOOOOOOOOOOOO    OOOOOOOOOOOOOOOOOOOOOOOOOOOOOOOOOOOOOOOO    OOOOOOOOOOOOOOOO    OOOOOOOOOOOOOOOOOOOOOOOO",
"OOOOOOOOOOOOOOOO    OOOOOOOOOOOOOOOO    OOOOOOOOOOOOOOOOOOOOOOOOOOOOOOOOOOOOOOOO    OOOOOOOOOOOOOOOO    OOOOOOOOOOOOOOOOOOOOOOOOOOOOOOOOOOOOOOOO    OOOOOOOOOOOOOOOO    OOOOOOOOOOOOOOOOOOOOOOOOOOOOOOOOOOOOOOOO    OOOOOOOOOOOOOOOO    OOOOOOOOOOOOOOOOOOOOOOOO"
};
