/* XPM */
static const char *coin_anim_strip_6[] = {
/* columns rows colors chars-per-pixel */
"192 32 6 1 ",
"  c gray20",
". c #D69A4E",
"X c #F3D040",
"o c #FFE88C",
"O c #F2F2F0",
"+ c None",
/* pixels */
"++++++++++++        ++++++++++++++++++++++++        ++++++++++++++++++++                ++++++++++++++++                ++++++++++++++++                ++++++++++++++++++++        ++++++++++++",
"++++++++++++        ++++++++++++++++++++++++        ++++++++++++++++++++                ++++++++++++++++                ++++++++++++++++                ++++++++++++++++++++        ++++++++++++",
"++++++++++++        ++++++++++++++++++++++++        ++++++++++++++++++++                ++++++++++++++++                ++++++++++++++++                ++++++++++++++++++++        ++++++++++++",
"++++++++++++        ++++++++++++++++++++++++        ++++++++++++++++++++                ++++++++++++++++                ++++++++++++++++                ++++++++++++++++++++        ++++++++++++",
"++++++++    ........    ++++++++++++++++    OOOO....    ++++++++++++    OOOOXXXXXXXX....    ++++++++    OOOOXXXXXXXXXXXX    ++++++++    ....OOOOXXXXXXXX    ++++++++++++    ....OOOO    ++++++++",
"++++++++    ........    ++++++++++++++++    OOOO....    ++++++++++++    OOOOXXXXXXXX....    ++++++++    OOOOXXXXXXXXXXXX    ++++++++    ....OOOOXXXXXXXX    ++++++++++++    ....OOOO    ++++++++",
"++++++++    ........    ++++++++++++++++    OOOO....    ++++++++++++    OOOOXXXXXXXX....    ++++++++    OOOOXXXXXXXXXXXX    ++++++++    ....OOOOXXXXXXXX    ++++++++++++    ....OOOO    ++++++++",
"++++++++    ........    ++++++++++++++++    OOOO....    ++++++++++++    OOOOXXXXXXXX....    ++++++++    OOOOXXXXXXXXXXXX    ++++++++    ....OOOOXXXXXXXX    ++++++++++++    ....OOOO    ++++++++",
"++++++++    ........    ++++++++++++    OOOOXXXXXXXX....    ++++    OOOOXXXX....XXXXXXXX....        OOOOXXXX........XXXXXXXX        ....OOOOXXXX....XXXXXXXX    ++++    ....OOOOXXXXXXXX    ++++",
"++++++++    ........    ++++++++++++    OOOOXXXXXXXX....    ++++    OOOOXXXX....XXXXXXXX....        OOOOXXXX........XXXXXXXX        ....OOOOXXXX....XXXXXXXX    ++++    ....OOOOXXXXXXXX    ++++",
"++++++++    ........    ++++++++++++    OOOOXXXXXXXX....    ++++    OOOOXXXX....XXXXXXXX....        OOOOXXXX........XXXXXXXX        ....OOOOXXXX....XXXXXXXX    ++++    ....OOOOXXXXXXXX    ++++",
"++++++++    ........    ++++++++++++    OOOOXXXXXXXX....    ++++    OOOOXXXX....XXXXXXXX....        OOOOXXXX........XXXXXXXX        ....OOOOXXXX....XXXXXXXX    ++++    ....OOOOXXXXXXXX    ++++",
"++++++++    ........    ++++++++++++    OOOO....XXXX....    ++++    OOOO....XXXXooooXXXX....        OOOO....XXXXXXXXooooXXXX        ....OOOO....XXXXooooXXXX    ++++    ....OOOO....XXXX    ++++",
"++++++++    ........    ++++++++++++    OOOO....XXXX....    ++++    OOOO....XXXXooooXXXX....        OOOO....XXXXXXXXooooXXXX        ....OOOO....XXXXooooXXXX    ++++    ....OOOO....XXXX    ++++",
"++++++++    ........    ++++++++++++    OOOO....XXXX....    ++++    OOOO....XXXXooooXXXX....        OOOO....XXXXXXXXooooXXXX        ....OOOO....XXXXooooXXXX    ++++    ....OOOO....XXXX    ++++",
"++++++++    ........    ++++++++++++    OOOO....XXXX....    ++++    OOOO....XXXXooooXXXX....        OOOO....XXXXXXXXooooXXXX        ....OOOO....XXXXooooXXXX    ++++    ....OOOO....XXXX    ++++",
"++++++++    ........    ++++++++++++    XXXX....XXXX....    ++++    XXXX....XXXXooooXXXX....        XXXX....XXXXXXXXooooXXXX        ....XXXX....XXXXooooXXXX    ++++    ....XXXX....XXXX    ++++",
"++++++++    ........    ++++++++++++    XXXX....XXXX....    ++++    XXXX....XXXXooooXXXX....        XXXX....XXXXXXXXooooXXXX        ....XXXX....XXXXooooXXXX    ++++    ....XXXX....XXXX    ++++",
"++++++++    ........    ++++++++++++    XXXX....XXXX....    ++++    XXXX....XXXXooooXXXX....        XXXX....XXXXXXXXooooXXXX        ....XXXX....XXXXooooXXXX    ++++    ....XXXX....XXXX    ++++",
"++++++++    ........    ++++++++++++    XXXX....XXXX....    ++++    XXXX....XXXXooooXXXX....        XXXX....XXXXXXXXooooXXXX        ....XXXX....XXXXooooXXXX    ++++    ....XXXX....XXXX    ++++",
"++++++++    ........    ++++++++++++    XXXXXXXXXXXX....    ++++    XXXXXXXXooooXXXXXXXX....        XXXXXXXXooooooooXXXXXXXX        ....XXXXXXXXooooXXXXXXXX    ++++    ....XXXXXXXXXXXX    ++++",
"++++++++    ........    ++++++++++++    XXXXXXXXXXXX....    ++++    XXXXXXXXooooXXXXXXXX....        XXXXXXXXooooooooXXXXXXXX        ....XXXXXXXXooooXXXXXXXX    ++++    ....XXXXXXXXXXXX    ++++",
"++++++++    ........    ++++++++++++    XXXXXXXXXXXX....    ++++    XXXXXXXXooooXXXXXXXX....        XXXXXXXXooooooooXXXXXXXX        ....XXXXXXXXooooXXXXXXXX    ++++    ....XXXXXXXXXXXX    ++++",
"++++++++    ........    ++++++++++++    XXXXXXXXXXXX....    ++++    XXXXXXXXooooXXXXXXXX....        XXXXXXXXooooooooXXXXXXXX        ....XXXXXXXXooooXXXXXXXX    ++++    ....XXXXXXXXXXXX    ++++",
"++++++++    ........    ++++++++++++++++    XXXX....    ++++++++++++    XXXXXXXXXXXX....    ++++++++    XXXXXXXXXXXXXXXX    ++++++++    ....XXXXXXXXXXXX    ++++++++++++    ....XXXX    ++++++++",
"++++++++    ........    ++++++++++++++++    XXXX....    ++++++++++++    XXXXXXXXXXXX....    ++++++++    XXXXXXXXXXXXXXXX    ++++++++    ....XXXXXXXXXXXX    ++++++++++++    ....XXXX    ++++++++",
"++++++++    ........    ++++++++++++++++    XXXX....    ++++++++++++    XXXXXXXXXXXX....    ++++++++    XXXXXXXXXXXXXXXX    ++++++++    ....XXXXXXXXXXXX    ++++++++++++    ....XXXX    ++++++++",
"++++++++    ........    ++++++++++++++++    XXXX....    ++++++++++++    XXXXXXXXXXXX....    ++++++++    XXXXXXXXXXXXXXXX    ++++++++    ....XXXXXXXXXXXX    ++++++++++++    ....XXXX    ++++++++",
"++++++++++++        ++++++++++++++++++++++++        ++++++++++++++++++++                ++++++++++++++++                ++++++++++++++++                ++++++++++++++++++++        ++++++++++++",
"++++++++++++        ++++++++++++++++++++++++        ++++++++++++++++++++                ++++++++++++++++                ++++++++++++++++                ++++++++++++++++++++        ++++++++++++",
"++++++++++++        ++++++++++++++++++++++++        ++++++++++++++++++++                ++++++++++++++++                ++++++++++++++++                ++++++++++++++++++++        ++++++++++++",
"++++++++++++        ++++++++++++++++++++++++        ++++++++++++++++++++                ++++++++++++++++                ++++++++++++++++                ++++++++++++++++++++        ++++++++++++"
};
