/* XPM */
static char *ae2a724ee5824362f3e3b12fe46a6e83FTAloW4oi32SLwlI[] = {
/* columns rows colors chars-per-pixel */
"48 8 6 1 ",
"  c None",
". c gray20",
"X c #D69A4E",
"o c #F3D040",
"O c #FFE88C",
"+ c #F2F2F0",
/* pixels */
"   ..      ..     ....    ....    ....     ..   ",
"  .XX.    .+X.   .+ooX.  .+ooo.  .X+oo.   .X+.  ",
"  .XX.   .+ooX. .+oXooX..+oXXoo..X+oXoo. .X+oo. ",
"  .XX.   .+XoX. .+XoOoX..+XooOo..X+XoOo. .X+Xo. ",
"  .XX.   .oXoX. .oXoOoX..oXooOo..XoXoOo. .XoXo. ",
"  .XX.   .oooX. .ooOooX..ooOOoo..XooOoo. .Xooo. ",
"  .XX.    .oX.   .oooX.  .oooo.  .Xooo.   .Xo.  ",
"   ..      ..     ....    ....    ....     ..   "
};
