/* XPM */
static char *_2789b4b23924332e077547f9e921606dKpWcgF4Y9UAcSNM[] = {
/* columns rows colors chars-per-pixel */
"24 24 6 1 ",
"  c None",
". c gray20",
"X c #376129",
"o c #78473B",
"O c #945848",
"+ c #B87E6F",
/* pixels */
"       ..........       ",
"........X.+.X.+++.......",
".+++.X..X.O.X.OOO++++++.",
".OO.X...X.O.X.OOOOOOOOO.",
".oO.X.........X.oOOOOOo.",
" .............X..X..oo. ",
" .X...........X.....oO. ",
" ..X................OO. ",
" .O.................OO. ",
" .OO................OO. ",
" .OO................OO. ",
" .O.................OO. ",
" ..X................OO. ",
" .X..................O. ",
" ...................X.. ",
" ..X.................X. ",
" .X.................O.. ",
" ....................O. ",
" ..X................X.. ",
" .X..................X. ",
" ...................... ",
" ..X................X.. ",
" .X..................X. ",
" ..O................O.. "
};
