/* XPM */
static const char *door[] = {
/* columns rows colors chars-per-pixel */
"72 72 9 1 ",
"n c #0d0d0d",
"f c #121212",
"  c #1c1c1c",
"p c #20361a",
". c #376129",
"X c #78473B",
"o c #945848",
"O c #B87E6F",
"+ c None",
/* pixels */
"+++++++++++++++++++++                              +++++++++++++++++++++",
"++++++++++++pppp+++++                              +++++++++++++++++++++",
"+++++++++++ppppppppp+                              +++++++++++++++++++++",
"         pppppppppppp   ...pppOOOppp...pppOOOOOOOOO                     ",
"    ppppppppppppppppppp ...pppOOOppp...pppOOOOOOOOO                     ",
"    pppppppppppppppppppp...pppOOOppp...pppOOOOOOOOO                     ",
"   OOOOOOOOOppp...pppppp...pppoooppp...pppoooooooooOOOOOOOOOOOOOOOOOO   ",
"   OOOOOOOOOppp...pppppp...pppoooppp...pppoooooooooOOOOOOOOOOOOOOOOOO   ",
"   OOOOOOOOOppp...ppppp ...pppoooppp...pppoooooooooOOOOOOOOOOOOOOOOOO   ",
"   ooooooopp...pppppppp ...pppoooppp...pppooooooooooooooooooooooooooo   ",
"   ooooooopp...ppppppp  ...pppoooppp...pppooooooooooooooooooooooooooo   ",
"   ooooooopp...ppppppp  ...pppoooppp...pppooooooooooooooooooooooooooo   ",
"   XXXoooopp...pppppp   pppppppppppp...ppp...pppXXXoooooooooooooooXXX   ",
"   XXXoooopp...pppp     pppppppppppp...ppp...pppXXXoooooooooooooooXXX   ",
"   XXXoooopp...pppp        pppppppp ....  ...   XXXoooooooooooooooXXX   ",
"+++ppppppppp...ppppp           pppppp...  ...      ...ffffffXXXXXX   +++",
"+++ppppppppp...ppppppp         fpppppp.......      ...ffffffXXXXXX   +++",
"+++ pppppppp...pppppp          fffpppp.......      ...ffffffXXXXXX   +++",
"+++   ...ppp...  pppppp        fffppppppp....      ...  ffffXXXooo   +++",
"+++   ...ppp     pppppp        fffppppppp....           ffffXXXooo   +++",
"+++   ...ppp   pppppp       ffffffppppppp....fff       fffffXXXooo   +++",
"+++   ppp...   pppppp       fffffffnnnppp....ffffff    fffffXXXooo   +++",
"+++   ppp...ppppppppp    ffffffffffnnnppp.......fff    fff  XXXooo   +++",
"+++   ppp...pppppp       ffffffffffnnnppp.......fff    fff  oooooo   +++",
"+++   oooppppppppp       ffffffnnnnnnnppppppp...fff  fffff  oooooo   +++",
"+++   oooppppppppp       fffnnnnnnnnnnppppppp...fff  fff    oooooo   +++",
"+++   oooppppppppp    ffffffnnnnnnnnnnnnnpppp...ffffffff    oooooo   +++",
"+++   ooooooppp       ffffffnnnnnnnnnnnnnnppp...ffffffff    oooooo   +++",
"+++   ooooooppp       ffffffnnnnnnnnnnnnnnppp......fffff    oooooo   +++",
"+++   ooooooppp    ffffffnnnnnnnnnnnnnnnnnnnn......fffff    oooooo   +++",
"+++   oooooo       ffffffnnnnnnnnnnnnnnnnnnnn......fffff    oooooo   +++",
"+++   oooooo       ffffffnnnnnnnnnnnnnnnnnnnnnnfffffff      oooooo   +++",
"+++   oooooo       fffffffffnnnnnnnnnnnnnnnnnnnfffffff      oooooo   +++",
"+++   oooppp       fffffffffnnnnnnnnnnnnnnnnnnnfffffffff    oooooo   +++",
"+++   oooppp       fffffffffnnnnnnnnnnnnnnnnnnnnnnffffff    oooooo   +++",
"+++   oooppp       fffffffffnnnnnnnnnnnnnnnnnnnnnnffffff    oooooo   +++",
"+++   ppp...       fffffffffnnnnnnnnnnnnnnnnnnnnnnffffff    oooooo   +++",
"+++   ppp...       fffffffffnnnnnnnnnnnnnnnnnnnnnnffffff    oooooo   +++",
"+++   ppp...       ffffffnnnnnnnnnnnnnnnnnnnnnnnnnffffff    oooooo   +++",
"+++   ...ppp       ffffffnnnnnnnnnnnnnnnnnnnnnnnnnffffff    pppooo   +++",
"+++   ...ppp    fffffffffnnnnnnnnnnnnnnnnnnnnnnnnnffffff    pppooo   +++",
"+++   ...ppp    fffffffffnnnnnnnnnnnnnnnnnnnnnnnnnffffff    pppooo   +++",
"+++   pppppp    fffffffffnnnnnnnnnnnnnnnnnnnnnnnnnffffff    ...ppp   +++",
"+++   ppp...    fffffffffnnnnnnnnnnnnnnnnnnnnnnnnnffffff    ...ppp   +++",
"+++   ppp...    fffffffffnnnnnnnnnnnnnnnnnnnnnnnnnffffff    ...ppp   +++",
"+++   ppp...    fffffffffnnnnnnnnnnnnnnnnnnnnnnnnnnnnfff    ppp...   +++",
"+++   ppp...    fffffffffnnnnnnnnnnnnnnnnnnnnnnnnnnnnfff    ppp...   +++",
"+++   ppp...    fffffffffnnnnnnnnnnnnnnnnnnnnnnnnnnnnfff    ppp...   +++",
"+++   ...ppp      fffffffnnnnnnnnnnnnnnnnnnnnnnnnnnnnfff    oooppp   +++",
"+++   ...ppp      fffffffnnnnnnnnnnnnnnnnnnnnnnnnnnnnfff    oooppp   +++",
"+++   ...ppp      fffffffnnnnnnnnnnnnnnnnnnnnnnnnnnnnfff    oooppp   +++",
"+++   pppppp          fffnnnnnnnnnnnnnnnnnnnnnnnnnnnnfff    pppooo   +++",
"+++   pppppp          fffnnnnnnnnnnnnnnnnnnnnnnnnnnnnfff    pppooo   +++",
"+++   pppppp          fffnnnnnnnnnnnnnnnnnnnnnnnnnffffff    pppooo   +++",
"+++   ppp...      ffffffnnnnnnnnnnnnnnnnnnnnnnnnnnffffff    ...ppp   +++",
"+++   ppp...      ffffffnnnnnnnnnnnnnnnnnnnnnnnnnnffffff    ...ppp   +++",
"+++   ppp...      ffffffnnnnnnnnnnnnnnnnnnnnnnnnnnffffff    ...ppp   +++",
"+++   ...ppp      ffffffnnnnnnnnnnnnnnnnnnnnnnnnnnffffff    ppp...   +++",
"+++   ...      ffffffnnnnnnnnnnnnnnnnnnnnnnnnnnnnnffffff    ppp...   +++",
"+++   ...      ffffffnnnnnnnnnnnnnnnnnnnnnnnnnnnnnffffff    ppp...   +++",
"+++       pp   ffffffnnnnnnnnnnnnnnnnnnnnnnnnnnnnnfff       pppppp   +++",
"+++      ppp   ffffffnnnnnnnnnnnnnnnnnnnnnnnnnnnnnfff       pppppp   +++",
"+++      ppp   ffffffnnnnnnnnnnnnnnnnnnnnnnnnnnnnnfff       pppppp   +++",
"+++   pppppp   ffffffnnnnnnnnnnnnnnnnnnnnnnnnnnnnnfff       ...ppp   +++",
"+++   pppppp   ffffffnnnnnnnnnnnnnnnnnnnnnnnnnnnnnfff       ...ppp   +++",
"+++   ppp...   ffffffnnnnnnnnnnnnnnnnnnnnnnnnnnffffff      p...ppp   +++",
"+++   ...ppp   fffffffffffnnnnnnnnnnnnnnnnnnnnnfffffffff   pppp...   +++",
"+++   ...ppp   fffffffffffnnnnnnnnnnnnnnnnnnffffffffffff  ppppp...   +++",
"+++   ...ppp   ffffffffffffnnnnnnnnnnnnnnnnnfffffffffffff ppppp...   +++",
"+++   pppoooppppppffffffffffffnnnnnnnnnffffffffpppfffffffpppoooppp   +++",
"+++   pppooopppppppppppppfffffnnnnnnnnffffffpppppffffffpppppoooppp   +++",
"+++   pppooopppppppppppppppfffnnnnnffffffppppppppppppppppppooopppp   +++"
};
